<?xml version="1.0" encoding="UTF-8"?>
<svg xmlns="http://www.w3.org/2000/svg" xmlns:xlink="http://www.w3.org/1999/xlink" width="18px" height="18px" viewBox="0 0 18 18" version="1.1">
<g id="surface1">
<rect x="0" y="0" width="18" height="18" style="fill:rgb(96.862745%,87.45098%,11.764706%);fill-opacity:1;stroke:none;"/>
<path style=" stroke:none;fill-rule:nonzero;fill:rgb(0%,0%,0%);fill-opacity:1;" d="M 12.089844 14.0625 C 12.453125 14.65625 12.925781 15.089844 13.761719 15.089844 C 14.460938 15.089844 14.910156 14.738281 14.910156 14.253906 C 14.910156 13.675781 14.449219 13.46875 13.675781 13.132812 L 13.253906 12.949219 C 12.035156 12.429688 11.222656 11.78125 11.222656 10.402344 C 11.222656 9.132812 12.1875 8.167969 13.699219 8.167969 C 14.777344 8.167969 15.546875 8.542969 16.105469 9.523438 L 14.789062 10.367188 C 14.5 9.847656 14.1875 9.644531 13.699219 9.644531 C 13.203125 9.644531 12.890625 9.957031 12.890625 10.367188 C 12.890625 10.875 13.203125 11.082031 13.929688 11.394531 L 14.351562 11.578125 C 15.789062 12.191406 16.601562 12.820312 16.601562 14.234375 C 16.601562 15.757812 15.40625 16.589844 13.800781 16.589844 C 12.226562 16.589844 11.214844 15.84375 10.71875 14.859375 Z M 6.117188 14.210938 C 6.382812 14.679688 6.625 15.078125 7.203125 15.078125 C 7.761719 15.078125 8.109375 14.863281 8.109375 14.015625 L 8.109375 8.265625 L 9.800781 8.265625 L 9.800781 14.039062 C 9.800781 15.789062 8.777344 16.585938 7.277344 16.585938 C 5.921875 16.585938 5.136719 15.886719 4.738281 15.042969 Z M 6.117188 14.210938 "/>
</g>
</svg>
